<?xml version="1.0" encoding="UTF-8" standalone="no"?>
<svg
   xmlns:dc="http://purl.org/dc/elements/1.1/"
   xmlns:cc="http://creativecommons.org/ns#"
   xmlns:rdf="http://www.w3.org/1999/02/22-rdf-syntax-ns#"
   xmlns:svg="http://www.w3.org/2000/svg"
   xmlns="http://www.w3.org/2000/svg"
   xmlns:sodipodi="http://sodipodi.sourceforge.net/DTD/sodipodi-0.dtd"
   xmlns:inkscape="http://www.inkscape.org/namespaces/inkscape"
   sodipodi:docname="sorting-hat.svg"
   inkscape:version="1.0 (4035a4f, 2020-05-01)"
   id="svg8"
   version="1.1"
   viewBox="0 0 177.15215 177.15215"
   height="177.15215mm"
   width="177.15215mm">
  <defs
     id="defs2" />
  <sodipodi:namedview
     inkscape:window-maximized="0"
     inkscape:window-y="25"
     inkscape:window-x="0"
     inkscape:window-height="817"
     inkscape:window-width="1252"
     fit-margin-bottom="0"
     fit-margin-right="0"
     fit-margin-left="0"
     fit-margin-top="0"
     showgrid="false"
     inkscape:document-rotation="0"
     inkscape:current-layer="layer1"
     inkscape:document-units="mm"
     inkscape:cy="333.51586"
     inkscape:cx="337.92531"
     inkscape:zoom="0.35"
     inkscape:pageshadow="2"
     inkscape:pageopacity="0.0"
     borderopacity="1.0"
     bordercolor="#666666"
     pagecolor="#ffffff"
     id="base" />
  <metadata
     id="metadata5">
    <rdf:RDF>
      <cc:Work
         rdf:about="">
        <dc:format>image/svg+xml</dc:format>
        <dc:type
           rdf:resource="http://purl.org/dc/dcmitype/StillImage" />
        <dc:title></dc:title>
      </cc:Work>
    </rdf:RDF>
  </metadata>
  <g
     transform="translate(-16.423928,-59.923928)"
     id="layer1"
     inkscape:groupmode="layer"
     inkscape:label="Layer 1">
    <path
       style="fill:#030303;stroke:none;stroke-width:0.264583"
       d="m 117.29232,94.826695 c -4.40293,-0.08948 -14.84206,1.462855 -17.16193,5.627895 -2.36537,4.24633 -1.770587,9.97771 -4.492356,14.00837 -1.104635,1.63618 -3.401748,1.35334 -4.64185,2.93661 -2.69875,3.44567 -2.388923,8.20314 -4.415102,11.89461 -1.407319,2.56381 -4.340754,4.00553 -5.293519,6.87916 -1.52691,4.60534 2.187311,9.3898 1.786467,14.02292 -0.303742,3.51393 -1.719263,9.29614 -3.317081,12.43542 -1.137709,2.23573 -3.355182,3.89811 -4.060032,6.35 -1.358371,4.72678 2.714361,10.85823 -0.170127,15.07728 -2.309019,3.37688 -7.5438,2.05502 -10.886546,1.42981 -7.045405,-1.31789 -20.278408,-2.56646 -23.512598,6.24708 -2.411209,6.57066 10.851624,9.05563 15.045931,9.6766 22.544882,3.33693 42.172203,-5.01253 63.499993,-10.34468 8.17007,-2.04232 16.52879,-1.03372 24.60626,-2.94454 6.58601,-1.55814 14.22771,-3.27343 20.37292,-6.12299 2.89692,-1.34303 5.0001,-3.58114 4.41087,-6.93314 -1.47108,-8.37195 -14.91456,-4.63471 -20.02129,-2.49344 -1.73222,0.72628 -5.41231,3.06467 -7.08051,1.35758 -1.2462,-1.27556 -1.19487,-3.46922 -2.27992,-4.94956 -5.19854,-7.09322 -10.36241,-15.66783 -12.19836,-24.34167 -0.48656,-2.2979 1.09723,-4.38653 0.54584,-6.61458 -0.42836,-1.73117 -2.11825,-2.73209 -2.9546,-4.23334 -1.70551,-3.06043 -2.8329,-6.57674 -4.23069,-9.78958 -0.52387,-1.20438 -2.01612,-3.1668 -1.9005,-4.49395 0.17462,-2.00713 3.73512,-2.50613 4.61433,-4.24762 0.7956,-1.57586 -0.8128,-3.26416 -0.127,-4.69185 0.61648,-1.2827 3.04033,-0.85408 4.18015,-0.85408 3.59357,0 7.30224,0.003 10.84792,-0.65185 1.14935,-0.21241 3.12262,-0.58637 3.32662,-1.99888 0.28046,-1.9405 -2.48101,-3.30822 -3.85579,-4.04164 -4.7834,-2.55169 -10.32827,-2.5659 -15.08125,-4.834149 -1.94389,-0.927655 -3.24432,-3.314806 -5.55625,-3.361796 m -5.55624,15.946645 c 0.23971,-1.89648 -0.62495,-8.04635 1.32291,-8.73125 -0.0363,6.438 3.41895,8.0526 6.87917,12.96459 l -3.70417,-1.85209 1.5875,4.23334 c -1.13771,-0.81836 -3.42291,-4.94983 -4.97179,-4.18783 -0.91889,0.45218 -1.27846,1.84124 -1.90737,2.60033 l -3.3446,-5.12525 -1.26471,-4.66434 -1.47611,-5.02708 c 3.59463,1.86751 2.54106,8.56845 6.87917,9.78958 m 10.84791,43.65626 c -2.99826,-0.53446 -5.69357,-4.10184 -8.73125,-3.90843 -5.22419,0.33205 -8.34125,5.9182 -13.49375,6.02509 1.1176,-1.44806 6.91648,-3.81714 6.63549,-5.76818 -0.23574,-1.63592 -5.36522,-2.01295 -6.57913,-3.10383 -1.61872,-1.45521 -1.97088,-3.89122 -3.771105,-5.24695 -0.727075,-0.54742 -2.776802,-1.04299 -2.920736,-2.07698 -0.179123,-1.28667 1.818482,-1.8497 1.818217,-3.09404 0,-1.22581 -2.470944,-2.02538 -3.384815,-2.40585 1.299634,-2.41618 5.630069,-1.82113 7.672917,-0.74851 4.326202,2.27119 6.679672,6.46324 9.833772,10.00892 1.17289,1.31869 2.79532,3.74227 4.71831,3.88753 2.77812,0.20955 5.95339,-3.23162 8.20208,-4.56115 0.83926,-0.49636 2.63022,-1.63328 3.54436,-0.75036 2.88634,2.78844 -4.49871,6.83895 -5.06413,8.5717 -0.35136,1.07659 1.09591,2.25611 1.51977,3.17104 m 9.525,11.37708 -0.52917,-1.85208 c 1.81531,0.94244 4.12724,3.35994 3.70417,5.55625 -2.50375,-1.04273 -4.70323,-2.50296 -7.40833,-3.05594 -6.97098,-1.42558 -14.30285,0.14869 -21.16667,1.52135 -5.78987,1.15782 -11.505402,2.15424 -16.933329,4.47702 -3.407833,1.45838 -9.983258,5.892 -10.31875,-0.56118 1.391708,0.26908 2.51804,1.41896 3.96875,1.38403 2.535238,-0.0606 5.203561,-2.08544 7.408334,-3.16786 6.466152,-3.1742 12.414515,-7.75811 19.579165,-9.27285 3.80285,-0.80407 11.73559,-2.26959 15.35509,-0.49424 2.74452,1.3462 2.89296,5.11016 6.34074,5.4655 m -1.32292,21.43125 c 1.28588,-2.51672 5.68537,-3.94203 8.20209,-4.90326 6.23941,-2.3831 11.94118,-6.47647 18.52084,-7.94888 2.51434,-0.5625 7.80389,-0.78078 9.0006,2.28018 1.1856,3.03292 -5.49222,4.66752 -7.4131,4.99428 -9.69566,1.64968 -18.23614,5.57768 -28.31043,5.57768 z"
       id="path847" />
  </g>
</svg>
